{
.appVersion = "3151";
.formatVersion = 3;
customParameters = (
{
name = vendorID;
value = COMM;
},
{
name = panose;
value = (
2,
13,
2,
4,
3,
5,
2,
12,
2,
3
);
},
{
name = unicodeRanges;
value = (
0,
1,
2
);
},
{
name = codePageRanges;
value = (
"1252",
"1250",
"1254",
"1257",
"bit 29"
);
},
{
name = fsType;
value = (
2
);
},
{
name = glyphOrder;
value = (
.notdef,
Eth,
eth,
Lslash,
lslash,
Scaron,
scaron,
Yacute,
yacute,
Thorn,
thorn,
Zcaron,
zcaron,
onehalf,
onequarter,
onesuperior,
threequarters,
threesuperior,
twosuperior,
brokenbar,
minus,
multiply,
space,
exclam,
quotedbl,
numbersign,
dollar,
percent,
ampersand,
quotesingle,
parenleft,
parenright,
asterisk,
plus,
comma,
hyphen,
period,
slash,
zero,
one,
two,
three,
four,
five,
six,
seven,
eight,
nine,
colon,
semicolon,
less,
equal,
greater,
question,
at,
A,
B,
C,
D,
E,
F,
G,
H,
I,
J,
K,
L,
M,
N,
O,
P,
Q,
R,
S,
T,
U,
V,
W,
X,
Y,
Z,
bracketleft,
backslash,
bracketright,
asciicircum,
underscore,
grave,
a,
b,
c,
d,
e,
f,
g,
h,
i,
j,
k,
l,
m,
n,
o,
p,
q,
r,
s,
t,
u,
v,
w,
x,
y,
z,
braceleft,
bar,
braceright,
asciitilde,
Adieresis,
Aring,
Ccedilla,
Eacute,
Ntilde,
Odieresis,
Udieresis,
aacute,
agrave,
acircumflex,
adieresis,
atilde,
aring,
ccedilla,
eacute,
egrave,
ecircumflex,
edieresis,
iacute,
igrave,
icircumflex,
idieresis,
ntilde,
oacute,
ograve,
ocircumflex,
odieresis,
otilde,
uacute,
ugrave,
ucircumflex,
udieresis,
dagger,
degree,
cent,
sterling,
section,
bullet,
paragraph,
germandbls,
registered,
copyright,
trademark,
acute,
dieresis,
notequal,
AE,
Oslash,
infinity,
plusminus,
lessequal,
greaterequal,
yen,
mu,
partialdiff,
summation,
product,
pi,
integral,
ordfeminine,
ordmasculine,
Omega,
ae,
oslash,
questiondown,
exclamdown,
logicalnot,
radical,
florin,
approxequal,
Delta,
guillemotleft,
guillemotright,
ellipsis,
uni00A0,
Agrave,
Atilde,
Otilde,
OE,
oe,
endash,
emdash,
quotedblleft,
quotedblright,
quoteleft,
quoteright,
divide,
lozenge,
ydieresis,
Ydieresis,
fraction,
Euro,
guilsinglleft,

glyphs = (
{
glyphname = zero;
kernLeft = zero;
kernRight = zero;
lastChange = "2023-04-04 19:32:02 +0000";
layers = (
{
hints = (
{
horizontal = 1;
place = (-13, 44);
place = (-13, 44);
type = Stem;
},
{
horizontal = 1;
place = (656, 43);
place = (656, 43);
type = Stem;
},
{
place = (40, 53);
place = (40, 53);
type = Stem;
},
{
place = (488, 53);
place = (488, 53);
type = Stem;
}
);
layerId = m01;
shapes = (
{
closed = 1;
nodes = (
(118,699,o),
(40,414,o),
(40,247,cs),
(40,100,o),
(102,-13,o),
(249,-13,cs),
(470,-13,o),
(541,275,o),
(541,440,cs),
(541,586,o),
(478,699,o),
(338,699,cs)
);
},
{
closed = 1;
nodes = (
(454,656,o),
(489,542,o),
(488,439,cs),
(487,296,o),
(429,31,o),
(250,31,cs),
(126,31,o),
(93,143,o),
(93,246,cs),
(93,394,o),
(155,656,o),
(337,656,cs)
);
}
);
width = 549;
}
);
note = zero;
unicode = 48;
},
{
glyphname = one;
kernLeft = one;
kernRight = one;
lastChange = "2023-04-03 23:38:30 +0000";
layers = (
{
hints = (
{
horizontal = 1;
place = (0, 21);
target = up;
type = BottomGhost;
},
{
horizontal = 1;
place = (526, 35);
place = (526, 35);
type = Stem;
},
{
horizontal = 1;
place = (689, -20);
target = down;
type = TopGhost;
},
{
place = (69, 219);
place = (69, 219);
type = Stem;
}
);
layerId = m01;
shapes = (
{
closed = 1;
nodes = (
(225,594,o),
(191,568,o),
(76,561,c),
(69,526,l),
(115,526,o),
(161,526,o),
(207,526,c),
(105,0,l),
(155,0,l),
(288,689,l),
(252,689,l)
);
}
);
width = 295;
}
);
note = one;
unicode = 49;
},
{
glyphname = two;
kernLeft = two;
kernRight = two;
lastChange = "2023-04-03 23:40:32 +0000";
layers = (
{
hints = (
{
horizontal = 1;
place = (0, 47);
place = (0, 47);
type = Stem;
},
{
horizontal = 1;
place = (655, 44);
place = (655, 44);
type = Stem;
},
{
place = (439, 53);
place = (439, 53);
type = Stem;
}
);
layerId = m01;
shapes = (
{
closed = 1;
nodes = (
(126,475,l),
(151,601,o),
(216,655,o),
(305,655,cs),
(388,655,o),
(439,605,o),
(439,523,cs),
(439,401,o),
(347,354,o),
(246,298,cs),
(132,235,o),
(15,167,o),
(-11,0,c),
(410,0,l),
(419,47,l),
(52,47,l),
(79,143,o),
(156,197,o),
(265,258,cs),
(378,321,o),
(492,378,o),
(492,523,cs),
(492,644,o),
(402,699,o),
(307,699,cs),
(197,699,o),
(99,635,o),
(75,475,c)
);
}
);
width = 484;
}
);
note = two;
unicode = 50;
},
{
glyphname = three;
kernLeft = three;
kernRight = three;
lastChange = "2023-04-03 23:50:32 +0000";
layers = (
{
hints = (
{
horizontal = 1;
place = (-13, 47);
place = (-13, 47);
type = Stem;
},
{
horizontal = 1;
place = (341, 44);
place = (341, 44);
type = Stem;
},
{
horizontal = 1;
place = (656, 43);
place = (656, 43);
type = Stem;
},
{
place = (9, 51);
place = (9, 51);
type = Stem;
},
{
place = (428, 52);
place = (428, 52);
type = Stem;
},
{
place = (396, 53);
place = (396, 53);
type = Stem;
}
);
layerId = m01;
shapes = (
{
closed = 1;
nodes = (
(130,487,l),
(142,581,o),
(206,656,o),
(300,656,cs),
(372,656,o),
(428,620,o),
(428,533,cs),
(428,438,o),
(365,385,o),
(274,385,cs),
(222,385,l),
(214,341,l),
(250,341,ls),
(348,341,o),
(396,281,o),
(396,201,cs),
(396,90,o),
(323,34,o),
(231,34,cs),
(118,34,o),
(65,101,o),
(60,203,c),
(9,203,l),
(9,67,o),
(97,-13,o),
(229,-13,cs),
(355,-13,o),
(449,72,o),
(449,203,cs),
(449,269,o),
(413,332,o),
(357,358,c),
(357,361,l),
(429,387,o),
(480,445,o),
(480,535,cs),
(480,650,o),
(396,699,o),
(302,699,cs),
(181,699,o),
(94,611,o),
(78,487,c)
);
}
);
width = 495;
}
);
note = three;
unicode = 51;
},
{
glyphname = four;
kernLeft = four;
kernRight = four;
lastChange = "2023-04-04 01:08:31 +0000";
layers = (
{
hints = (
{
horizontal = 1;
place = (0, 21);
target = up;
type = BottomGhost;
},
{
horizontal = 1;
place = (181, 44);
place = (181, 44);
type = Stem;
},
{
horizontal = 1;
place = (692, -20);
target = down;
type = TopGhost;
},
{
place = (6, 471);
place = (6, 471);
type = Stem;
}
);
layerId = m01;
shapes = (
{
closed = 1;
nodes = (
(6,181,l),
(319,181,l),
(285,0,l),
(335,0,l),
(369,181,l),
(468,181,l),
(477,225,l),
(378,225,l),
(469,692,l),
(423,692,l),
(16,230,l)
);
},
{
closed = 1;
nodes = (
(400,598,l),
(328,225,l),
(72,225,l)
);
}
);
width = 510;
}
);
note = four;
unicode = 52;
},
{
glyphname = five;
kernLeft = five;
kernRight = five;
lastChange = "2023-04-04 01:35:43 +0000";
layers = (
{
hints = (
{
horizontal = 1;
place = (-13, 47);
place = (-13, 47);
type = Stem;
},
{
horizontal = 1;
place = (394, 45);
place = (394, 45);
type = Stem;
},
{
horizontal = 1;
place = (639, 46);
place = (639, 46);
type = Stem;
},
{
place = (8, 52);
place = (8, 52);
type = Stem;
},
{
place = (391, 53);
place = (391, 53);
type = Stem;
},
{
horizontal = 1;
place = (323, 59);
place = (323, 59);
type = Stem;
}
);
layerId = m01;
shapes = (
{
closed = 1;
nodes = (
(159,685,l),
(52,323,l),
(102,323,l),
(133,363,o),
(178,394,o),
(249,394,cs),
(340,394,o),
(391,334,o),
(391,237,cs),
(391,122,o),
(333,34,o),
(213,34,cs),
(121,34,o),
(67,89,o),
(60,176,c),
(8,176,l),
(16,54,o),
(108,-13,o),
(212,-13,cs),
(364,-13,o),
(444,107,o),
(444,237,cs),
(444,366,o),
(366,439,o),
(258,439,cs),
(204,439,o),
(155,421,o),
(116,382,c),
(114,382,l),
(190,639,l),
(471,639,l),
(480,685,l)
);
}
);
width = 476;
}
);
note = five;
unicode = 53;
},
{
glyphname = six;
kernLeft = six;
kernRight = six;
lastChange = "2023-04-04 01:39:42 +0000";
layers = (
{
hints = (
{
horizontal = 1;
place = (-13, 43);
place = (-13, 43);
type = Stem;
},
{
horizontal = 1;
place = (393, 43);
place = (393, 43);
type = Stem;
},
{
horizontal = 1;
place = (655, 44);
place = (655, 44);
type = Stem;
},
{
place = (42, 51);
place = (42, 51);
type = Stem;
},
{
place = (427, 52);
place = (427, 52);
type = Stem;
},
{
place = (469, 51);
place = (469, 51);
type = Stem;
}
);
layerId = m01;
shapes = (
{
closed = 1;
nodes = (
(515,639,o),
(451,699,o),
(349,699,cs),
(135,699,o),
(42,421,o),
(42,226,cs),
(42,82,o),
(110,-13,o),
(248,-13,cs),
(396,-13,o),
(479,100,o),
(479,236,cs),
(479,365,o),
(391,436,o),
(285,436,cs),
(214,436,o),
(144,400,o),
(102,328,c),
(100,328,l),
(135,532,o),
(221,655,o),
(347,655,cs),
(423,655,o),
(468,605,o),
(469,530,c),
(520,530,l)
);
},
{
closed = 1;
nodes = (
(371,393,o),
(427,327,o),
(427,235,cs),
(427,125,o),
(373,30,o),
(249,30,cs),
(161,30,o),
(93,86,o),
(93,190,cs),
(93,297,o),
(166,393,o),
(282,393,cs)
);
}
);
width = 522;
}
);
note = six;
unicode = 54;
},
{
glyphname = seven;
kernLeft = seven;
kernRight = seven;
lastChange = "2023-04-04 01:43:56 +0000";
layers = (
{
hints = (
{
horizontal = 1;
place = (0, 21);
target = up;
type = BottomGhost;
},
{
horizontal = 1;
place = (640, 45);
place = (640, 45);
type = Stem;
},
{
place = (97, 430);
place = (97, 430);
type = Stem;
}
);
layerId = m01;
shapes = (
{
closed = 1;
nodes = (
(97,640,l),
(461,640,l),
(306,490,o),
(166,239,o),
(110,0,c),
(165,0,l),
(228,267,o),
(364,499,o),
(518,639,c),
(527,685,l),
(106,685,l)
);
}
);
width = 465;
}
);
note = seven;
unicode = 55;
},
{
glyphname = eight;
kernLeft = eight;
kernRight = eight;
lastChange = "2023-04-04 18:15:43 +0000";
layers = (
{
hints = (
{
horizontal = 1;
place = (-13, 44);
place = (-13, 44);
type = Stem;
},
{
horizontal = 1;
place = (348, 43);
place = (348, 43);
type = Stem;
},
{
horizontal = 1;
place = (656, 43);
place = (656, 43);
type = Stem;
},
{
place = (21, 53);
place = (21, 53);
type = Stem;
},
{
place = (105, 51);
place = (105, 51);
type = Stem;
},
{
place = (420, 52);
place = (420, 52);
type = Stem;
},
{
place = (442, 51);
place = (442, 51);
type = Stem;
}
);
layerId = m01;
shapes = (
{
closed = 1;
nodes = (
(193,698,o),
(105,618,o),
(105,504,cs),
(105,449,o),
(134,401,o),
(180,378,c),
(180,375,l),
(85,346,o),
(21,283,o),
(21,177,cs),
(21,46,o),
(134,-13,o),
(233,-13,cs),
(377,-13,o),
(474,72,o),
(472,204,cs),
(471,278,o),
(428,339,o),
(366,363,c),
(366,366,l),
(443,393,o),
(493,448,o),
(493,532,cs),
(493,648,o),
(400,699,o),
(313,699,cs)
);
},
{
closed = 1;
nodes = (
(340,348,o),
(419,302,o),
(420,204,cs),
(421,92,o),
(342,31,o),
(235,31,cs),
(152,31,o),
(74,79,o),
(74,177,cs),
(74,289,o),
(157,348,o),
(259,348,cs)
);
},
{
closed = 1;
nodes = (
(382,656,o),
(442,608,o),
(442,530,cs),
(442,435,o),
(367,391,o),
(285,391,cs),
(211,391,o),
(156,434,o),
(156,506,cs),
(156,598,o),
(226,657,o),
(312,656,cs)
);
}
);
width = 514;
}
);
note = eight;
unicode = 56;
},
{
glyphname = nine;
kernLeft = nine;
kernRight = nine;
lastChange = "2023-04-04 02:05:06 +0000";
layers = (
{
hints = (
{
horizontal = 1;
place = (-13, 44);
place = (-13, 44);
type = Stem;
},
{
horizontal = 1;
place = (250, 43);
place = (250, 43);
type = Stem;
},
{
horizontal = 1;
place = (656, 43);
place = (656, 43);
type = Stem;
},
{
place = (64, 52);
place = (64, 52);
type = Stem;
},
{
place = (450, 51);
place = (450, 51);
type = Stem;
},
{
place = (20, 51);
place = (20, 51);
type = Stem;
}
);
layerId = m01;
shapes = (
{
closed = 1;
nodes = (
(329,250,o),
(402,287,o),
(446,360,c),
(421,203,o),
(365,31,o),
(206,31,cs),
(130,31,o),
(72,74,o),
(71,156,c),
(20,156,l),
(25,42,o),
(102,-13,o),
(204,-13,cs),
(418,-13,o),
(501,238,o),
(501,452,cs),
(501,609,o),
(429,699,o),
(295,699,cs),
(157,699,o),
(64,586,o),
(64,453,cs),
(64,323,o),
(152,250,o),
(258,250,cs)
);
},
{
closed = 1;
nodes = (
(172,293,o),
(116,359,o),
(116,454,cs),
(116,561,o),
(180,656,o),
(294,656,cs),
(382,656,o),
(450,600,o),
(450,496,cs),
(450,389,o),
(377,293,o),
(257,293,cs)
);
}
);
width = 514;
}
);
note = nine;
unicode = 57;
},
{
glyphname = A;
kernLeft = A;
kernRight = A;
lastChange = "2023-04-04 19:47:28 +0000";
layers = (
{
hints = (
{
horizontal = 1;
place = (0, 21);
target = up;
type = BottomGhost;
},
{
horizontal = 1;
place = (230, 43);
place = (230, 43);
type = Stem;
},
{
horizontal = 1;
place = (664, 51);
place = (664, 51);
type = Stem;
},
{
place = (-45, 589);
place = (-45, 589);
type = Stem;
}
);
layerId = m01;
shapes = (
{
closed = 1;
nodes = (
(-45,0,l),
(7,0,l),
(131,230,l),
(446,230,l),
(492,0,l),
(544,0,l),
(399,715,l),
(340,715,l)
);
},
{
closed = 1;
nodes = (
(437,273,l),
(154,273,l),
(361,664,l)
);
}
);
width = 602;
}
);
note = A;
unicode = 65;
},
{
glyphname = B;
lastChange = "2023-04-04 19:47:33 +0000";
layers = (
{
hints = (
{
horizontal = 1;
place = (0, 47);
place = (0, 47);
type = Stem;
},
{
horizontal = 1;
place = (350, 45);
place = (350, 45);
type = Stem;
},
{
horizontal = 1;
place = (669, 46);
place = (669, 46);
type = Stem;
},
{
place = (530, 52);
place = (530, 52);
type = Stem;
},
{
place = (508, 53);
place = (508, 53);
type = Stem;
}
);
layerId = m01;
shapes = (
{
closed = 1;
nodes = (
(11,0,l),
(304,0,ls),
(458,0,o),
(561,74,o),
(561,220,cs),
(561,297,o),
(525,351,o),
(455,374,c),
(532,402,o),
(582,461,o),
(582,552,cs),
(582,640,o),
(529,715,o),
(403,715,cs),
(149,715,l)
);
},
{
closed = 1;
nodes = (
(402,669,ls),
(483,669,o),
(530,628,o),
(530,551,cs),
(530,453,o),
(464,395,o),
(364,395,cs),
(138,395,l),
(191,669,l)
);
},
{
closed = 1;
nodes = (
(374,350,ls),
(462,350,o),
(508,300,o),
(508,218,cs),
(508,99,o),
(425,47,o),
(306,47,cs),
(71,47,l),
(129,350,l)
);
}
);
width = 596;
}
);
note = B;
unicode = 66;
},
{
glyphname = C;
kernLeft = C;
kernRight = C;
lastChange = "2023-04-04 02:17:01 +0000";
layers = (
{
hints = (
{
horizontal = 1;
place = (-13, 45);
place = (-13, 45);
type = Stem;
},
{
horizontal = 1;
place = (685, 44);
place = (685, 44);
type = Stem;
},
{
place = (46, 54);
place = (46, 54);
type = Stem;
}
);
layerId = m01;
shapes = (
{
closed = 1;
nodes = (
(625,661,o),
(530,729,o),
(405,729,cs),
(160,729,o),
(46,490,o),
(46,285,cs),
(46,107,o),
(141,-13,o),
(317,-13,cs),
(480,-13,o),
(582,95,o),
(621,259,c),
(572,259,l),
(540,123,o),
(450,32,o),
(319,32,cs),
(164,32,o),
(100,139,o),
(100,286,cs),
(100,469,o),
(186,685,o),
(402,685,cs),
(510,685,o),
(578,624,o),
(593,519,c),
(643,519,l)
);
}
);
width = 641;
}
);
note = C;
unicode = 67;
},
{
glyphname = D;
kernRight = Eth;
lastChange = "2023-04-04 19:47:35 +0000";
layers = (
{
hints = (
{
horizontal = 1;
place = (0, 45);
place = (0, 45);
type = Stem;
},
{
horizontal = 1;
place = (669, 46);
place = (669, 46);
type = Stem;
},
{
place = (572, 54);
place = (572, 54);
type = Stem;
}
);
layerId = m01;
shapes = (
{
closed = 1;
nodes = (
(11,0,l),
(264,0,ls),
(518,0,o),
(626,210,o),
(626,436,cs),
(626,604,o),
(553,715,o),
(370,715,cs),
(149,715,l)
);
},
{
closed = 1;
nodes = (
(367,669,ls),
(515,669,o),
(572,579,o),
(572,434,cs),
(572,222,o),
(479,45,o),
(261,45,cs),
(70,45,l),
(191,669,l)
);
}
);
width = 634;
}
);
note = D;
unicode = 68;
},
{
glyphname = E;
kernRight = E;
layers = (
{
hints = (
{
horizontal = 1;
place = (0, 47);
place = (0, 47);
type = Stem;
},
{
horizontal = 1;
place = (347, 44);
place = (347, 44);
type = Stem;
},
{
horizontal = 1;
place = (670, 45);
place = (670, 45);
type = Stem;
},
{
place = (11, 580);
place = (11, 580);
type = Stem;
}
);
layerId = m01;
shapes = (
{
closed = 1;
nodes = (
(11,0,l),
(477,0,l),
(486,47,l),
(71,47,l),
(129,347,l),
(498,347,l),
(507,391,l),
(138,391,l),
(192,670,l),
(583,670,l),
(591,715,l),
(149,715,l)
);
}
);
width = 559;
}
);
note = E;
unicode = 69;
},
{
glyphname = F;
kernRight = F;
layers = (
{
hints = (
{
horizontal = 1;
place = (0, 21);
target = up;
type = BottomGhost;
},
{
horizontal = 1;
place = (349, 44);
place = (349, 44);
type = Stem;
},
{
horizontal = 1;
place = (670, 45);
place = (670, 45);
type = Stem;
},
{
place = (11, 570);
place = (11, 570);
type = Stem;
}
);
layerId = m01;
shapes = (
{
closed = 1;
nodes = (
(11,0,l),
(62,0,l),
(130,349,l),
(467,349,l),
(476,393,l),
(138,393,l),
(191,670,l),
(573,670,l),
(581,715,l),
(149,715,l)
);
}
);
width = 518;
}
);
note = F;
unicode = 70;
},
{
glyphname = G;
kernLeft = C;
kernRight = G;
lastChange = "2023-04-04 02:26:54 +0000";
layers = (
{
hints = (
{
horizontal = 1;
place = (0, 21);
target = up;
type = BottomGhost;
},
{
horizontal = 1;
place = (315, 45);
place = (315, 45);
type = Stem;
},
{
horizontal = 1;
place = (685, 44);
place = (685, 44);
type = Stem;
},
{
place = (46, 54);
place = (46, 54);
type = Stem;
},
{
place = (604, 49);
place = (604, 49);
type = Stem;
},
{
horizontal = 1;
place = (-13, 45);
place = (-13, 45);
type = Stem;
}
);
layerId = m01;
shapes = (
{
closed = 1;
nodes = (
(640,658,o),
(546,729,o),
(416,729,cs),
(177,729,o),
(46,509,o),
(46,285,cs),
(46,90,o),
(154,-13,o),
(319,-13,cs),
(456,-13,o),
(524,66,o),
(560,113,c),
(545,0,l),
(584,0,l),
(653,360,l),
(367,360,l),
(359,315,l),
(595,315,l),
(587,274,ls),
(563,149,o),
(485,32,o),
(323,32,cs),
(175,32,o),
(100,118,o),
(100,288,cs),
(100,490,o),
(206,685,o),
(414,685,cs),
(518,685,o),
(598,622,o),
(604,513,c),
(653,513,l)
);
}
);
width = 687;
}
);
note = G;
unicode = 71;
},
{
glyphname = H;
layers = (
{
hints = (
{
horizontal = 1;
place = (0, 21);
target = up;
type = BottomGhost;
},
{
horizontal = 1;
place = (358, 44);
place = (358, 44);
type = Stem;
},
{
horizontal = 1;
place = (715, -20);
target = down;
type = TopGhost;
},
{
place = (11, 634);
place = (11, 634);
type = Stem;
}
);
layerId = m01;
shapes = (
{
closed = 1;
nodes = (
(11,0,l),
(62,0,l),
(131,358,l),
(524,358,l),
(455,0,l),
(507,0,l),
(645,715,l),
(593,715,l),
(533,402,l),
(140,402,l),
(200,715,l),
(149,715,l)
);
}
);
width = 618;
}
);
note = H;
unicode = 72;
},
{
glyphname = I;
layers = (
{
hints = (
{
horizontal = 1;
place = (0, 21);
target = up;
type = BottomGhost;
},
{
horizontal = 1;
place = (715, -20);
target = down;
type = TopGhost;
},
{
place = (15, 189);
place = (15, 189);
type = Stem;
}
);
layerId = m01;
shapes = (
{
closed = 1;
nodes = (
(15,0,l),
(66,0,l),
(204,715,l),
(153,715,l)
);
}
);
width = 181;
}
);
note = I;
unicode = 73;
},
{
glyphname = J;
kernLeft = J;
kernRight = J;
lastChange = "2023-04-04 02:31:27 +0000";
layers = (
{
hints = (
{
horizontal = 1;
place = (-13, 46);
place = (-13, 46);
type = Stem;
},
{
horizontal = 1;
place = (715, -20);
target = down;
type = TopGhost;
},
{
place = (0, 52);
place = (0, 52);
type = Stem;
}
);
layerId = m01;
shapes = (
{
closed = 1;
nodes = (
(319,158,ls),
(302,72,o),
(254,33,o),
(174,33,cs),
(65,33,o),
(38,99,o),
(57,201,cs),
(61,222,l),
(11,222,l),
(6,196,ls),
(-22,52,o),
(58,-13,o),
(172,-13,cs),
(294,-13,o),
(352,59,o),
(369,148,cs),
(479,715,l),
(427,715,l)
);
}
);
width = 449;
}
);
note = J;
unicode = 74;
},
{
glyphname = K;
kernRight = K;
lastChange = "2023-04-04 02:34:36 +0000";
layers = (
{
hints = (
{
horizontal = 1;
place = (0, 21);
target = up;
type = BottomGhost;
},
{
horizontal = 1;
place = (715, -20);
target = down;
type = TopGhost;
},
{
place = (11, 631);
place = (11, 631);
type = Stem;
}
);
layerId = m01;
shapes = (
{
closed = 1;
nodes = (
(11,0,l),
(62,0,l),
(110,252,l),
(268,389,l),
(480,0,l),
(536,0,l),
(306,423,l),
(642,715,l),
(573,715,l),
(123,317,l),
(200,715,l),
(149,715,l)
);
}
);
width = 583;
}
);
note = K;
unicode = 75;
},
{
glyphname = L;
kernRight = L;
layers = (
{
hints = (
{
horizontal = 1;
place = (0, 47);
place = (0, 47);
type = Stem;
},
{
horizontal = 1;
place = (715, -20);
target = down;
type = TopGhost;
},
{
place = (11, 426);
place = (11, 426);
type = Stem;
}
);
layerId = m01;
shapes = (
{
closed = 1;
nodes = (
(11,0,l),
(428,0,l),
(437,47,l),
(71,47,l),
(200,715,l),
(149,715,l)
);
}
);
width = 501;
}
);
note = L;
unicode = 76;
},
{
glyphname = M;
lastChange = "2023-04-04 02:44:43 +0000";
layers = (
{
hints = (
{
horizontal = 1;
place = (0, 21);
target = up;
type = BottomGhost;
},
{
horizontal = 1;
place = (648, 67);
place = (648, 67);
type = Stem;
},
{
place = (11, 774);
place = (11, 774);
type = Stem;
},
{
horizontal = 1;
place = (0, 71);
place = (0, 71);
type = Stem;
}
);
layerId = m01;
shapes = (
{
closed = 1;
nodes = (
(11,0,l),
(60,0,l),
(185,648,l),
(187,648,l),
(307,0,l),
(358,0,l),
(720,648,l),
(722,648,l),
(597,0,l),
(647,0,l),
(785,715,l),
(706,715,l),
(346,71,l),
(344,71,l),
(220,715,l),
(149,715,l)
);
}
);
width = 758;
}
);
note = M;
unicode = 77;
},
{
glyphname = N;
lastChange = "2023-04-04 02:46:54 +0000";
layers = (
{
hints = (
{
horizontal = 1;
place = (0, 21);
target = up;
type = BottomGhost;
},
{
horizontal = 1;
place = (715, -20);
target = down;
type = TopGhost;
},
{
place = (11, 643);
place = (11, 643);
type = Stem;
},
{
horizontal = 1;
place = (642, 73);
place = (642, 73);
type = Stem;
},
{
horizontal = 1;
place = (0, 75);
place = (0, 75);
type = Stem;
}
);
layerId = m01;
shapes = (
{
closed = 1;
nodes = (
(11,0,l),
(60,0,l),
(184,642,l),
(186,642,l),
(461,0,l),
(516,0,l),
(654,715,l),
(604,715,l),
(480,75,l),
(478,75,l),
(206,715,l),
(149,715,l)
);
}
);
width = 627;
}
);
note = N;
unicode = 78;
},
{
glyphname = O;
kernLeft = C;
kernRight = O;
lastChange = "2023-04-04 19:47:39 +0000";
layers = (
{
hints = (
{
horizontal = 1;
place = (-13, 46);
place = (-13, 46);
type = Stem;
},
{
horizontal = 1;
place = (683, 46);
place = (683, 46);
type = Stem;
},
{
place = (45, 54);
place = (45, 54);
type = Stem;
},
{
place = (627, 54);
place = (627, 54);
type = Stem;
}
);
layerId = m01;
shapes = (
{
closed = 1;
nodes = (
(170,729,o),
(45,507,o),
(45,295,cs),
(45,102,o),
(167,-13,o),
(328,-13,cs),
(563,-13,o),
(681,207,o),
(681,419,cs),
(681,611,o),
(558,729,o),
(396,729,cs)
);
},
{
closed = 1;
nodes = (
(540,683,o),
(627,571,o),
(627,419,cs),
(627,226,o),
(526,33,o),
(330,33,cs),
(182,33,o),
(99,145,o),
(99,295,cs),
(99,491,o),
(199,683,o),
(394,683,cs)
);
}
);
width = 689;
}
);
note = O;
unicode = 79;
},
{
glyphname = P;
kernRight = P;
lastChange = "2023-04-04 19:47:42 +0000";
layers = (
{
hints = (
{
horizontal = 1;
place = (0, 21);
target = up;
type = BottomGhost;
},
{
horizontal = 1;
place = (319, 45);
place = (319, 45);
type = Stem;
},
{
horizontal = 1;
place = (669, 46);
place = (669, 46);
type = Stem;
},
{
place = (530, 52);
place = (530, 52);
type = Stem;
}
);
layerId = m01;
shapes = (
{
closed = 1;
nodes = (
(11,0,l),
(62,0,l),
(124,319,l),
(319,319,ls),
(471,319,o),
(582,388,o),
(582,543,cs),
(582,655,o),
(509,715,o),
(385,715,cs),
(149,715,l)
);
},
{
closed = 1;
nodes = (
(384,669,ls),
(486,669,o),
(530,619,o),
(530,539,cs),
(530,407,o),
(428,364,o),
(320,364,cs),
(132,364,l),
(191,669,l)
);
}
);
width = 556;
}
);
note = P;
unicode = 80;
},
{
glyphname = Q;
kernLeft = C;
kernRight = Q;
lastChange = "2023-04-04 19:47:44 +0000";
layers = (
{
hints = (
{
horizontal = 1;
place = (-13, 46);
place = (-13, 46);
type = Stem;
},
{
horizontal = 1;
place = (683, 46);
place = (683, 46);
type = Stem;
},
{
place = (45, 54);
place = (45, 54);
type = Stem;
},
{
place = (627, 54);
place = (627, 54);
type = Stem;
},
{
horizontal = 1;
place = (-4, 21);
target = up;
type = BottomGhost;
}
);
layerId = m01;
shapes = (
{
closed = 1;
nodes = (
(170,729,o),
(45,507,o),
(45,295,cs),
(45,102,o),
(167,-13,o),
(328,-13,cs),
(394,-13,o),
(452,5,o),
(499,35,c),
(581,-41,l),
(613,-4,l),
(539,66,l),
(633,150,o),
(681,288,o),
(681,419,cs),
(681,611,o),
(558,729,o),
(396,729,cs)
);
},
{
closed = 1;
nodes = (
(540,683,o),
(627,571,o),
(627,419,cs),
(627,295,o),
(585,171,o),
(504,98,c),
(421,177,l),
(388,141,l),
(464,69,l),
(426,46,o),
(381,33,o),
(330,33,cs),
(182,33,o),
(99,145,o),
(99,295,cs),
(99,491,o),
(199,683,o),
(394,683,cs)
);
}
);
width = 689;
}
);
note = Q;
unicode = 81;
},
{
glyphname = R;
kernRight = R;
lastChange = "2023-04-04 19:47:46 +0000";
layers = (
{
hints = (
{
horizontal = 1;
place = (0, 21);
target = up;
type = BottomGhost;
},
{
horizontal = 1;
place = (332, 45);
place = (332, 45);
type = Stem;
},
{
horizontal = 1;
place = (669, 46);
place = (669, 46);
type = Stem;
},
{
place = (480, 51);
place = (480, 51);
type = Stem;
},
{
place = (551, 51);
place = (551, 51);
type = Stem;
}
);
layerId = m01;
shapes = (
{
closed = 1;
nodes = (
(11,0,l),
(62,0,l),
(126,332,l),
(345,332,ls),
(456,332,o),
(496,301,o),
(485,181,cs),
(481,136,o),
(479,102,o),
(479,77,cs),
(480,25,o),
(488,7,o),
(495,0,c),
(548,0,l),
(548,4,l),
(540,11,o),
(531,29,o),
(531,81,cs),
(530,105,o),
(532,138,o),
(536,181,cs),
(545,272,o),
(522,326,o),
(461,350,c),
(461,353,l),
(548,381,o),
(602,444,o),
(602,545,cs),
(602,652,o),
(539,715,o),
(417,715,cs),
(149,715,l)
);
},
{
closed = 1;
nodes = (
(412,669,ls),
(509,669,o),
(551,618,o),
(551,542,cs),
(551,422,o),
(472,377,o),
(358,377,cs),
(135,377,l),
(191,669,l)
);
}
);
width = 607;
}
);
note = R;
unicode = 82;
},
{
glyphname = S;
kernLeft = Scaron;
kernRight = Scaron;
lastChange = "2023-04-04 03:06:43 +0000";
layers = (
{
hints = (
{
horizontal = 1;
place = (-13, 44);
place = (-13, 44);
type = Stem;
},
{
horizontal = 1;
place = (685, 44);
place = (685, 44);
type = Stem;
},
{
place = (5, 51);
place = (5, 51);
type = Stem;
},
{
place = (87, 51);
place = (87, 51);
type = Stem;
},
{
place = (464, 52);
place = (464, 52);
type = Stem;
},
{
place = (500, 50);
place = (500, 50);
type = Stem;
}
);
layerId = m01;
shapes = (
{
closed = 1;
nodes = (
(547,667,o),
(453,729,o),
(324,729,cs),
(196,729,o),
(87,658,o),
(87,533,cs),
(87,436,o),
(150,397,o),
(279,355,cs),
(408,314,o),
(464,280,o),
(464,207,cs),
(464,80,o),
(366,31,o),
(264,31,cs),
(134,31,o),
(54,93,o),
(56,226,c),
(5,226,l),
(3,58,o),
(114,-13,o),
(262,-13,cs),
(399,-13,o),
(516,63,o),
(516,207,cs),
(516,324,o),
(424,359,o),
(292,402,cs),
(186,436,o),
(138,466,o),
(138,533,cs),
(138,640,o),
(222,685,o),
(322,685,cs),
(426,685,o),
(497,632,o),
(500,530,c),
(550,530,l)
);
}
);
width = 559;
}
);
note = S;
unicode = 83;
},
{
glyphname = T;
kernLeft = T;
kernRight = T;
layers = (
{
hints = (
{
horizontal = 1;
place = (0, 21);
target = up;
type = BottomGhost;
},
{
horizontal = 1;
place = (669, 46);
place = (669, 46);
type = Stem;
},
{
place = (94, 526);
place = (94, 526);
type = Stem;
}
);
layerId = m01;
shapes = (
{
closed = 1;
nodes = (
(94,669,l),
(327,669,l),
(198,0,l),
(249,0,l),
(378,669,l),
(611,669,l),
(620,715,l),
(103,715,l)
);
}
);
width = 551;
}
);
note = T;
unicode = 84;
},
{
glyphname = U;
kernLeft = U;
kernRight = U;
lastChange = "2023-04-04 03:08:29 +0000";
layers = (
{
hints = (
{
horizontal = 1;
place = (-11, 45);
place = (-11, 45);
type = Stem;
},
{
horizontal = 1;
place = (715, -20);
target = down;
type = TopGhost;
},
{
place = (45, 51);
place = (45, 51);
type = Stem;
}
);
layerId = m01;
shapes = (
{
closed = 1;
nodes = (
(52,245,ls),
(17,62,o),
(121,-11,o),
(271,-11,cs),
(416,-11,o),
(509,60,o),
(537,209,cs),
(635,715,l),
(584,715,l),
(487,214,ls),
(463,85,o),
(393,34,o),
(276,34,cs),
(132,34,o),
(75,101,o),
(103,245,cs),
(194,715,l),
(143,715,l)
);
}
);
width = 602;
}
);
note = U;
unicode = 85;
},
{
glyphname = V;
kernLeft = V;
kernRight = V;
lastChange = "2023-04-04 03:08:33 +0000";
layers = (
{
hints = (
{
horizontal = 1;
place = (0, 21);
target = up;
type = BottomGhost;
},
{
horizontal = 1;
place = (715, -20);
target = down;
type = TopGhost;
},
{
place = (84, 563);
place = (84, 563);
type = Stem;
},
{
horizontal = 1;
place = (0, 56);
place = (0, 56);
type = Stem;
}
);
layerId = m01;
shapes = (
{
closed = 1;
nodes = (
(217,0,l),
(271,0,l),
(647,715,l),
(595,715,l),
(254,56,l),
(252,56,l),
(135,715,l),
(84,715,l)
);
}
);
width = 569;
}
);
note = V;
unicode = 86;
},
{
glyphname = W;
kernLeft = W;
kernRight = W;
lastChange = "2023-04-04 03:17:40 +0000";
layers = (
{
hints = (
{
horizontal = 1;
place = (0, 65);
place = (0, 65);
type = Stem;
},
{
horizontal = 1;
place = (715, -20);
target = down;
type = TopGhost;
},
{
place = (92, 813);
place = (92, 813);
type = Stem;
},
{
horizontal = 1;
place = (654, 61);
place = (654, 61);
type = Stem;
}
);
layerId = m01;
shapes = (
{
closed = 1;
nodes = (
(157,0,l),
(214,0,l),
(487,654,l),
(489,654,l),
(547,0,l),
(603,0,l),
(905,715,l),
(855,715,l),
(588,65,l),
(586,65,l),
(526,715,l),
(472,715,l),
(196,65,l),
(194,65,l),
(142,715,l),
(92,715,l)
);
}
);
width = 838;
}
);
note = W;
unicode = 87;
},
{
glyphname = X;
kernLeft = X;
kernRight = X;
lastChange = "2023-04-04 04:43:43 +0000";
layers = (
{
hints = (
{
horizontal = 1;
place = (0, 21);
target = up;
type = BottomGhost;
},
{
horizontal = 1;
place = (715, -20);
target = down;
type = TopGhost;
},
{
place = (-49, 647);
place = (-49, 647);
type = Stem;
}
);
layerId = m01;
shapes = (
{
closed = 1;
nodes = (
(252,368,l),
(-49,0,l),
(9,0,l),
(275,327,l),
(277,327,l),
(418,0,l),
(474,0,l),
(314,361,l),
(598,715,l),
(539,715,l),
(291,402,l),
(289,402,l),
(154,715,l),
(99,715,l)
);
}
);
width = 524;
}
);
note = X;
unicode = 88;
},
{
glyphname = Y;
kernLeft = Yacute;
kernRight = Yacute;
lastChange = "2023-04-04 04:45:36 +0000";
layers = (
{
hints = (
{
horizontal = 1;
place = (0, 21);
target = up;
type = BottomGhost;
},
{
horizontal = 1;
place = (715, -20);
target = down;
type = TopGhost;
},
{
place = (82, 545);
place = (82, 545);
type = Stem;
}
);
layerId = m01;
shapes = (
{
closed = 1;
nodes = (
(258,318,l),
(197,0,l),
(248,0,l),
(308,312,l),
(627,715,l),
(570,715,l),
(293,360,l),
(291,360,l),
(136,715,l),
(82,715,l)
);
}
);
width = 546;
}
);
note = Y;
unicode = 89;
},
{
glyphname = Z;
kernLeft = Zcaron;
kernRight = Zcaron;
lastChange = "2023-04-04 04:53:53 +0000";
layers = (
{
hints = (
{
horizontal = 1;
place = (0, 45);
place = (0, 45);
type = Stem;
},
{
horizontal = 1;
place = (671, 44);
place = (671, 44);
type = Stem;
},
{
place = (-22, 619);
place = (-22, 619);
type = Stem;
}
);
layerId = m01;
shapes = (
{
closed = 1;
nodes = (
(135,671,l),
(526,671,l),
(526,668,l),
(-13,50,l),
(-22,0,l),
(474,0,l),
(482,45,l),
(48,45,l),
(48,48,l),
(588,668,l),
(597,715,l),
(143,715,l)
);
}
);
width = 554;
}
);
note = Z;
unicode = 90;
},
{
glyphname = a;
kernLeft = a;
kernRight = a;
lastChange = "2023-04-04 19:47:50 +0000";
layers = (
{
hints = (
{
horizontal = 1;
place = (-8, 37);
place = (-8, 37);
type = Stem;
},
{
horizontal = 1;
place = (487, 41);
place = (487, 41);
type = Stem;
},
{
place = (-1, 50);
place = (-1, 50);
type = Stem;
},
{
place = (391, 46);
place = (391, 46);
type = Stem;
},
{
horizontal = 1;
place = (-13, 40);
place = (-13, 40);
type = Stem;
}
);
layerId = m01;
shapes = (
{
closed = 1;
nodes = (
(105,370,l),
(122,449,o),
(176,487,o),
(264,487,cs),
(334,487,o),
(391,461,o),
(391,390,cs),
(391,278,o),
(262,305,o),
(159,292,cs),
(56,279,o),
(-1,221,o),
(-1,129,cs),
(-1,38,o),
(77,-13,o),
(164,-13,cs),
(258,-13,o),
(306,32,o),
(330,68,c),
(333,68,l),
(332,63,o),
(331,58,o),
(331,53,cs),
(331,21,o),
(348,-8,o),
(395,-8,cs),
(410,-8,o),
(419,-6,o),
(427,-2,c),
(433,32,l),
(430,32,l),
(421,30,o),
(413,29,o),
(407,29,cs),
(385,30,o),
(374,45,o),
(380,77,cs),
(432,339,ls),
(460,480,o),
(373,528,o),
(265,528,cs),
(150,528,o),
(75,468,o),
(56,370,c)
);
},
{
closed = 1;
nodes = (
(353,181,ls),
(338,105,o),
(283,27,o),
(169,27,cs),
(99,27,o),
(50,66,o),
(49,129,cs),
(48,198,o),
(77,238,o),
(161,252,cs),
(233,264,o),
(313,258,o),
(373,282,c)
);
}
);
width = 481;
}
);
note = a;
unicode = 97;
},
{
glyphname = b;
kernLeft = b;
kernRight = thorn;
lastChange = "2023-04-04 19:47:52 +0000";
layers = (
{
hints = (
{
horizontal = 1;
place = (-11, 40);
place = (-11, 40);
type = Stem;
},
{
horizontal = 1;
place = (487, 41);
place = (487, 41);
type = Stem;
},
{
horizontal = 1;
place = (715, -20);
target = down;
type = TopGhost;
},
{
place = (439, 50);
place = (439, 50);
type = Stem;
},
{
horizontal = 1;
place = (0, 21);
target = up;
type = BottomGhost;
}
);
layerId = m01;
shapes = (
{
closed = 1;
nodes = (
(-1,0,l),
(47,0,l),
(66,98,l),
(68,98,l),
(94,28,o),
(158,-11,o),
(233,-11,cs),
(408,-11,o),
(488,158,o),
(489,319,cs),
(490,445,o),
(419,528,o),
(308,528,cs),
(229,528,o),
(174,492,o),
(131,428,c),
(129,428,l),
(185,715,l),
(137,715,l)
);
},
{
closed = 1;
nodes = (
(399,487,o),
(439,406,o),
(439,318,cs),
(439,188,o),
(380,29,o),
(236,29,cs),
(137,29,o),
(85,93,o),
(86,198,cs),
(87,326,o),
(159,487,o),
(299,487,cs)
);
}
);
width = 508;
}
);
note = b;
unicode = 98;
},
{
glyphname = c;
kernLeft = c;
kernRight = c;
lastChange = "2023-04-04 05:11:03 +0000";
layers = (
{
hints = (
{
horizontal = 1;
place = (-13, 42);
place = (-13, 42);
type = Stem;
},
{
horizontal = 1;
place = (487, 41);
place = (487, 41);
type = Stem;
},
{
place = (22, 49);
place = (22, 49);
type = Stem;
},
{
place = (409, 46);
place = (409, 46);
type = Stem;
}
);
layerId = m01;
shapes = (
{
closed = 1;
nodes = (
(444,466,o),
(380,528,o),
(281,528,cs),
(105,528,o),
(22,358,o),
(22,204,cs),
(22,59,o),
(103,-13,o),
(221,-13,cs),
(330,-13,o),
(407,64,o),
(435,175,c),
(388,175,l),
(366,90,o),
(305,30,o),
(222,29,cs),
(115,29,o),
(71,102,o),
(71,205,cs),
(71,336,o),
(133,487,o),
(280,487,cs),
(369,487,o),
(403,424,o),
(409,368,c),
(455,368,l)
);
}
);
width = 461;
}
);
note = c;
unicode = 99;
},
{
glyphname = d;
kernLeft = d;
lastChange = "2023-04-04 19:47:55 +0000";
layers = (
{
hints = (
{
horizontal = 1;
place = (-13, 40);
place = (-13, 40);
type = Stem;
},
{
horizontal = 1;
place = (487, 41);
place = (487, 41);
type = Stem;
},
{
horizontal = 1;
place = (715, -20);
target = down;
type = TopGhost;
},
{
place = (20, 50);
place = (20, 50);
type = Stem;
},
{
horizontal = 1;
place = (0, 21);
target = up;
type = BottomGhost;
}
);
layerId = m01;
shapes = (
{
closed = 1;
nodes = (
(442,417,l),
(440,417,l),
(416,486,o),
(358,528,o),
(282,528,cs),
(117,528,o),
(21,359,o),
(20,198,cs),
(19,66,o),
(92,-13,o),
(203,-13,cs),
(282,-13,o),
(335,22,o),
(375,83,c),
(377,83,l),
(361,0,l),
(409,0,l),
(548,715,l),
(500,715,l)
);
},
{
closed = 1;
nodes = (
(374,487,o),
(424,416,o),
(423,319,cs),
(422,191,o),
(349,27,o),
(209,27,cs),
(109,27,o),
(70,105,o),
(70,199,cs),
(70,334,o),
(143,487,o),
(278,487,cs)
);
}
);
width = 508;
}
);
note = d;
unicode = 100;
},
{
glyphname = e;
kernLeft = c;
kernRight = e;
lastChange = "2023-04-04 19:47:57 +0000";
layers = (
{
hints = (
{
horizontal = 1;
place = (-13, 42);
place = (-13, 42);
type = Stem;
},
{
horizontal = 1;
place = (253, 40);
place = (253, 40);
type = Stem;
},
{
horizontal = 1;
place = (487, 41);
place = (487, 41);
type = Stem;
},
{
place = (22, 49);
place = (22, 49);
type = Stem;
},
{
place = (413, 47);
place = (413, 47);
type = Stem;
}
);
layerId = m01;
shapes = (
{
closed = 1;
nodes = (
(479,409,o),
(433,528,o),
(283,528,cs),
(104,528,o),
(22,348,o),
(22,204,cs),
(22,66,o),
(98,-13,o),
(220,-13,cs),
(324,-13,o),
(402,46,o),
(436,154,c),
(388,154,l),
(363,81,o),
(306,29,o),
(223,29,cs),
(94,29,o),
(59,136,o),
(74,253,c),
(453,253,l)
);
},
{
closed = 1;
nodes = (
(81,293,l),
(104,394,o),
(169,487,o),
(281,487,cs),
(389,487,o),
(425,400,o),
(409,293,c)
);
}
);
width = 477;
}
);
note = e;
unicode = 101;
},
{
glyphname = f;
kernLeft = f;
kernRight = f;
lastChange = "2023-04-04 05:30:55 +0000";
layers = (
{
hints = (
{
horizontal = 1;
place = (0, 21);
target = up;
type = BottomGhost;
},
{
horizontal = 1;
place = (477, 40);
place = (477, 40);
type = Stem;
},
{
horizontal = 1;
place = (677, 42);
place = (677, 42);
type = Stem;
},
{
place = (38, 278);
place = (38, 278);
type = Stem;
}
);
layerId = m01;
shapes = (
{
closed = 1;
nodes = (
(54,477,l),
(130,477,l),
(38,0,l),
(86,0,l),
(178,477,l),
(272,477,l),
(280,517,l),
(186,517,l),
(206,619,ls),
(213,655,o),
(229,677,o),
(274,677,cs),
(285,677,o),
(297,677,o),
(308,677,c),
(316,719,l),
(302,719,o),
(289,719,o),
(275,719,cs),
(210,719,o),
(172,691,o),
(159,626,cs),
(138,517,l),
(62,517,l)
);
}
);
width = 248;
}
);
note = f;
unicode = 102;
},
{
glyphname = g;
kernLeft = g;
kernRight = g;
lastChange = "2023-04-04 19:47:59 +0000";
layers = (
{
hints = (
{
horizontal = 1;
place = (-187, 41);
place = (-187, 41);
type = Stem;
},
{
horizontal = 1;
place = (5, 41);
place = (5, 41);
type = Stem;
},
{
horizontal = 1;
place = (517, -20);
target = down;
type = TopGhost;
},
{
place = (9, 49);
place = (9, 49);
type = Stem;
},
{
horizontal = 1;
place = (487, 41);
place = (487, 41);
type = Stem;
},
{
place = (21, 50);
place = (21, 50);
type = Stem;
}
);
layerId = m01;
shapes = (
{
closed = 1;
nodes = (
(443,417,l),
(441,417,l),
(412,490,o),
(354,528,o),
(281,528,cs),
(114,528,o),
(22,359,o),
(21,212,cs),
(20,84,o),
(90,5,o),
(207,5,cs),
(277,5,o),
(332,32,o),
(377,89,c),
(379,89,l),
(362,3,ls),
(345,-82,o),
(301,-146,o),
(196,-146,cs),
(134,-146,o),
(65,-121,o),
(58,-57,c),
(9,-57,l),
(21,-155,o),
(112,-187,o),
(195,-187,cs),
(319,-187,o),
(386,-121,o),
(410,3,cs),
(510,517,l),
(462,517,l)
);
},
{
closed = 1;
nodes = (
(381,487,o),
(422,405,o),
(422,316,cs),
(422,188,o),
(352,45,o),
(213,46,cs),
(115,46,o),
(71,114,o),
(71,212,cs),
(71,339,o),
(141,487,o),
(277,487,cs)
);
}
);
width = 508;
}
);
note = g;
unicode = 103;
},
{
glyphname = h;
kernLeft = b;
kernRight = h;
lastChange = "2023-04-04 05:35:33 +0000";
layers = (
{
hints = (
{
horizontal = 1;
place = (0, 21);
target = up;
type = BottomGhost;
},
{
horizontal = 1;
place = (486, 41);
place = (486, 41);
type = Stem;
},
{
horizontal = 1;
place = (715, -20);
target = down;
type = TopGhost;
},
{
place = (402, 48);
place = (402, 48);
type = Stem;
}
);
layerId = m01;
shapes = (
{
closed = 1;
nodes = (
(-1,0,l),
(47,0,l),
(107,312,ls),
(126,409,o),
(210,486,o),
(310,486,cs),
(382,486,o),
(414,443,o),
(398,363,cs),
(328,0,l),
(376,0,l),
(446,364,ls),
(467,471,o),
(412,527,o),
(320,527,cs),
(231,527,o),
(176,483,o),
(131,426,c),
(129,426,l),
(185,715,l),
(137,715,l)
);
}
);
width = 471;
}
);
note = h;
unicode = 104;
},
{
glyphname = i;
kernLeft = b;
layers = (
{
hints = (
{
horizontal = 1;
place = (0, 21);
target = up;
type = BottomGhost;
},
{
horizontal = 1;
place = (517, -20);
target = down;
type = TopGhost;
},
{
horizontal = 1;
place = (636, 79);
place = (636, 79);
type = Stem;
},
{
place = (2, 186);
place = (2, 186);
type = Stem;
}
);
layerId = m01;
shapes = (
{
closed = 1;
nodes = (
(2,0,l),
(50,0,l),
(150,517,l),
(102,517,l)
);
},
{
closed = 1;
nodes = (
(125,636,l),
(173,636,l),
(188,715,l),
(140,715,l)
);
}
);
width = 153;
}
);
note = i;
unicode = 105;
},
{
glyphname = j;
kernLeft = j;
kernRight = j;
lastChange = "2023-04-04 05:42:43 +0000";
layers = (
{
hints = (
{
horizontal = 1;
place = (-166, 42);
place = (-166, 42);
type = Stem;
},
{
horizontal = 1;
place = (517, -20);
target = down;
type = TopGhost;
},
{
horizontal = 1;
place = (636, 79);
place = (636, 79);
type = Stem;
},
{
place = (-97, 285);
place = (-97, 285);
type = Stem;
}
);
layerId = m01;
shapes = (
{
closed = 1;
nodes = (
(-12,-69,ls),
(-20,-108,o),
(-41,-124,o),
(-74,-124,cs),
(-79,-124,o),
(-84,-124,o),
(-89,-124,c),
(-97,-166,l),
(-89,-166,o),
(-82,-166,o),
(-74,-166,cs),
(-17,-166,o),
(22,-142,o),
(36,-71,cs),
(150,517,l),
(102,517,l)
);
},
{
closed = 1;
nodes = (
(125,636,l),
(173,636,l),
(188,715,l),
(140,715,l)
);
}
);
width = 153;
}
);
note = j;
unicode = 106;
},
{
glyphname = k;
kernLeft = b;
kernRight = k;
lastChange = "2023-04-04 05:44:02 +0000";
layers = (
{
hints = (
{
horizontal = 1;
place = (0, 21);
target = up;
type = BottomGhost;
},
{
horizontal = 1;
place = (517, -20);
target = down;
type = TopGhost;
},
{
horizontal = 1;
place = (715, -20);
target = down;
type = TopGhost;
},
{
place = (-1, 463);
place = (-1, 463);
type = Stem;
}
);
layerId = m01;
shapes = (
{
closed = 1;
nodes = (
(-1,0,l),
(47,0,l),
(82,183,l),
(213,298,l),
(349,0,l),
(402,0,l),
(251,332,l),
(462,517,l),
(398,517,l),
(94,245,l),
(185,715,l),
(137,715,l)
);
}
);
width = 445;
}
);
note = k;
unicode = 107;
},
{
glyphname = l;
kernLeft = b;
layers = (
{
hints = (
{
horizontal = 1;
place = (0, 21);
target = up;
type = BottomGhost;
},
{
horizontal = 1;
place = (715, -20);
target = down;
type = TopGhost;
},
{
place = (2, 186);
place = (2, 186);
type = Stem;
}
);
layerId = m01;
shapes = (
{
closed = 1;
nodes = (
(2,0,l),
(50,0,l),
(188,715,l),
(140,715,l)
);
}
);
width = 150;
}
);
note = l;
unicode = 108;
},
{
glyphname = m;
kernLeft = m;
kernRight = h;
lastChange = "2023-04-04 05:49:10 +0000";
layers = (
{
hints = (
{
horizontal = 1;
place = (0, 21);
target = up;
type = BottomGhost;
},
{
horizontal = 1;
place = (517, -20);
target = down;
type = TopGhost;
},
{
place = (687, 48);
place = (687, 48);
type = Stem;
},
{
horizontal = 1;
place = (486, 41);
place = (486, 41);
type = Stem;
},
{
place = (380, 43);
place = (380, 43);
type = Stem;
}
);
layerId = m01;
shapes = (
{
closed = 1;
nodes = (
(-1,0,l),
(47,0,l),
(108,317,ls),
(127,414,o),
(207,486,o),
(297,486,cs),
(359,486,o),
(392,443,o),
(376,363,cs),
(306,0,l),
(354,0,l),
(415,317,ls),
(434,416,o),
(514,486,o),
(604,486,cs),
(666,486,o),
(699,443,o),
(683,363,cs),
(613,0,l),
(661,0,l),
(731,364,ls),
(752,471,o),
(696,527,o),
(614,527,cs),
(538,527,o),
(474,487,o),
(425,421,c),
(423,421,l),
(417,491,o),
(373,527,o),
(307,527,cs),
(228,527,o),
(174,484,o),
(132,431,c),
(130,431,l),
(147,517,l),
(99,517,l)
);
}
);
width = 756;
}
);
note = m;
unicode = 109;
},
{
glyphname = n;
kernLeft = m;
kernRight = h;
lastChange = "2023-04-04 05:50:06 +0000";
layers = (
{
hints = (
{
horizontal = 1;
place = (0, 21);
target = up;
type = BottomGhost;
},
{
horizontal = 1;
place = (517, -20);
target = down;
type = TopGhost;
},
{
place = (402, 48);
place = (402, 48);
type = Stem;
},
{
horizontal = 1;
place = (486, 41);
place = (486, 41);
type = Stem;
}
);
layerId = m01;
shapes = (
{
closed = 1;
nodes = (
(-1,0,l),
(47,0,l),
(107,312,ls),
(126,409,o),
(210,486,o),
(310,486,cs),
(382,486,o),
(414,443,o),
(398,363,cs),
(328,0,l),
(376,0,l),
(446,364,ls),
(467,471,o),
(412,527,o),
(320,527,cs),
(231,527,o),
(176,483,o),
(131,426,c),
(129,426,l),
(147,517,l),
(99,517,l)
);
}
);
width = 471;
}
);
note = n;
unicode = 110;
},
{
glyphname = o;
kernLeft = c;
kernRight = o;
lastChange = "2023-04-04 19:48:03 +0000";
layers = (
{
hints = (
{
horizontal = 1;
place = (-13, 41);
place = (-13, 41);
type = Stem;
},
{
horizontal = 1;
place = (488, 40);
place = (488, 40);
type = Stem;
},
{
place = (22, 49);
place = (22, 49);
type = Stem;
},
{
place = (429, 49);
place = (429, 49);
type = Stem;
}
);
layerId = m01;
shapes = (
{
closed = 1;
nodes = (
(100,528,o),
(22,350,o),
(22,203,cs),
(22,69,o),
(107,-13,o),
(224,-13,cs),
(398,-13,o),
(478,163,o),
(478,308,cs),
(478,442,o),
(395,528,o),
(278,528,cs)
);
},
{
closed = 1;
nodes = (
(384,488,o),
(429,400,o),
(429,304,cs),
(429,176,o),
(364,28,o),
(225,28,cs),
(120,28,o),
(71,108,o),
(71,208,cs),
(71,338,o),
(136,488,o),
(276,488,cs)
);
}
);
width = 500;
}
);
note = o;
unicode = 111;
},
{
glyphname = p;
kernLeft = p;
kernRight = thorn;
lastChange = "2023-04-04 19:48:05 +0000";
layers = (
{
hints = (
{
horizontal = 1;
place = (-166, 21);
target = up;
type = BottomGhost;
},
{
horizontal = 1;
place = (-11, 40);
place = (-11, 40);
type = Stem;
},
{
horizontal = 1;
place = (487, 41);
place = (487, 41);
type = Stem;
},
{
place = (439, 50);
place = (439, 50);
type = Stem;
},
{
horizontal = 1;
place = (517, -20);
target = down;
type = TopGhost;
}
);
layerId = m01;
shapes = (
{
closed = 1;
nodes = (
(-34,-166,l),
(14,-166,l),
(65,98,l),
(67,98,l),
(92,29,o),
(158,-11,o),
(233,-11,cs),
(408,-11,o),
(488,158,o),
(489,319,cs),
(490,445,o),
(419,528,o),
(308,528,cs),
(229,528,o),
(174,492,o),
(131,428,c),
(129,428,l),
(147,517,l),
(99,517,l)
);
},
{
closed = 1;
nodes = (
(399,487,o),
(439,406,o),
(439,318,cs),
(439,188,o),
(380,29,o),
(236,29,cs),
(137,29,o),
(85,93,o),
(86,198,cs),
(87,326,o),
(159,487,o),
(299,487,cs)
);
}
);
width = 508;
}
);
note = p;
unicode = 112;
},
{
glyphname = q;
kernLeft = d;
kernRight = q;
lastChange = "2023-04-04 19:48:07 +0000";
layers = (
{
hints = (
{
horizontal = 1;
place = (-166, 21);
target = up;
type = BottomGhost;
},
{
horizontal = 1;
place = (-13, 40);
place = (-13, 40);
type = Stem;
},
{
horizontal = 1;
place = (517, -20);
target = down;
type = TopGhost;
},
{
place = (20, 50);
place = (20, 50);
type = Stem;
},
{
horizontal = 1;
place = (487, 41);
place = (487, 41);
type = Stem;
}
);
layerId = m01;
shapes = (
{
closed = 1;
nodes = (
(462,517,l),
(442,417,l),
(440,417,l),
(416,486,o),
(358,528,o),
(282,528,cs),
(117,528,o),
(21,359,o),
(20,198,cs),
(19,66,o),
(92,-13,o),
(203,-13,cs),
(282,-13,o),
(335,22,o),
(375,83,c),
(377,83,l),
(330,-166,l),
(377,-166,l),
(510,517,l)
);
},
{
closed = 1;
nodes = (
(374,487,o),
(424,416,o),
(423,319,cs),
(422,191,o),
(349,27,o),
(209,27,cs),
(109,27,o),
(70,105,o),
(70,199,cs),
(70,334,o),
(143,487,o),
(278,487,cs)
);
}
);
width = 510;
}
);
note = q;
unicode = 113;
},
{
glyphname = r;
kernLeft = m;
kernRight = r;
lastChange = "2023-04-04 06:01:52 +0000";
layers = (
{
hints = (
{
horizontal = 1;
place = (0, 21);
target = up;
type = BottomGhost;
},
{
horizontal = 1;
place = (517, -20);
target = down;
type = TopGhost;
},
{
place = (-1, 317);
place = (-1, 317);
type = Stem;
},
{
horizontal = 1;
place = (472, 48);
place = (472, 48);
type = Stem;
}
);
layerId = m01;
shapes = (
{
closed = 1;
nodes = (
(-1,0,l),
(47,0,l),
(101,278,ls),
(121,382,o),
(175,435,o),
(232,460,cs),
(255,470,o),
(278,473,o),
(307,472,c),
(316,520,l),
(274,520,o),
(252,516,o),
(216,498,cs),
(183,481,o),
(151,450,o),
(129,415,c),
(127,415,l),
(147,517,l),
(99,517,l)
);
}
);
width = 280;
}
);
note = r;
unicode = 114;
},
{
glyphname = s;
kernLeft = scaron;
kernRight = scaron;
lastChange = "2023-04-04 06:04:31 +0000";
layers = (
{
hints = (
{
horizontal = 1;
place = (-13, 42);
place = (-13, 42);
type = Stem;
},
{
horizontal = 1;
place = (486, 42);
place = (486, 42);
type = Stem;
},
{
place = (-3, 48);
place = (-3, 48);
type = Stem;
},
{
place = (56, 47);
place = (56, 47);
type = Stem;
},
{
place = (329, 48);
place = (329, 48);
type = Stem;
},
{
place = (355, 46);
place = (355, 46);
type = Stem;
}
);
layerId = m01;
shapes = (
{
closed = 1;
nodes = (
(396,473,o),
(332,528,o),
(231,528,cs),
(137,528,o),
(56,482,o),
(56,392,cs),
(56,317,o),
(103,286,o),
(203,249,cs),
(294,215,o),
(329,192,o),
(329,142,cs),
(329,69,o),
(275,29,o),
(194,29,cs),
(100,29,o),
(50,69,o),
(45,156,c),
(-3,156,l),
(-2,36,o),
(86,-13,o),
(192,-13,cs),
(300,-13,o),
(377,50,o),
(377,143,cs),
(377,226,o),
(317,256,o),
(232,288,cs),
(135,324,o),
(103,345,o),
(103,393,cs),
(103,463,o),
(163,486,o),
(229,486,cs),
(300,486,o),
(350,450,o),
(355,381,c),
(401,381,l)
);
}
);
width = 423;
}
);
note = s;
unicode = 115;
},
{
glyphname = t;
kernLeft = t;
kernRight = t;
lastChange = "2023-04-04 06:06:25 +0000";
layers = (
{
hints = (
{
horizontal = 1;
place = (-4, 41);
place = (-4, 41);
type = Stem;
},
{
horizontal = 1;
place = (477, 40);
place = (477, 40);
type = Stem;
},
{
place = (58, 51);
place = (58, 51);
type = Stem;
}
);
layerId = m01;
shapes = (
{
closed = 1;
nodes = (
(56,477,l),
(134,477,l),
(61,99,ls),
(48,34,o),
(73,-4,o),
(140,-4,cs),
(156,-4,o),
(174,-1,o),
(184,3,c),
(192,44,l),
(179,40,o),
(161,37,o),
(146,37,cs),
(112,37,o),
(102,55,o),
(109,93,cs),
(183,477,l),
(275,477,l),
(283,517,l),
(191,517,l),
(221,673,l),
(172,673,l),
(142,517,l),
(64,517,l)
);
}
);
width = 262;
}
);
note = t;
unicode = 116;
},
{
glyphname = u;
kernLeft = u;
kernRight = u;
lastChange = "2023-04-04 06:07:24 +0000";
layers = (
{
hints = (
{
horizontal = 1;
place = (0, 21);
target = up;
type = BottomGhost;
},
{
horizontal = 1;
place = (517, -20);
target = down;
type = TopGhost;
},
{
place = (21, 48);
place = (21, 48);
type = Stem;
},
{
horizontal = 1;
place = (-12, 41);
place = (-12, 41);
type = Stem;
}
);
layerId = m01;
shapes = (
{
closed = 1;
nodes = (
(25,155,ls),
(4,47,o),
(57,-12,o),
(149,-12,cs),
(238,-12,o),
(291,35,o),
(333,87,c),
(335,87,l),
(318,0,l),
(366,0,l),
(466,517,l),
(418,517,l),
(360,216,ls),
(340,111,o),
(259,29,o),
(159,29,cs),
(84,29,o),
(58,77,o),
(73,156,cs),
(143,517,l),
(95,517,l)
);
}
);
width = 465;
}
);
note = u;
unicode = 117;
},
{
glyphname = v;
kernLeft = v;
kernRight = v;
lastChange = "2023-04-04 06:09:15 +0000";
layers = (
{
hints = (
{
horizontal = 1;
place = (0, 43);
place = (0, 43);
type = Stem;
},
{
horizontal = 1;
place = (517, -20);
target = down;
type = TopGhost;
},
{
place = (57, 420);
place = (57, 420);
type = Stem;
}
);
layerId = m01;
shapes = (
{
closed = 1;
nodes = (
(145,0,l),
(205,0,l),
(477,517,l),
(427,517,l),
(182,43,l),
(180,43,l),
(107,517,l),
(57,517,l)
);
}
);
width = 438;
}
);
note = v;
unicode = 118;
},
{
glyphname = w;
kernLeft = w;
kernRight = w;
lastChange = "2023-04-04 06:11:05 +0000";
layers = (
{
hints = (
{
horizontal = 1;
place = (0, 45);
place = (0, 45);
type = Stem;
},
{
horizontal = 1;
place = (517, -20);
target = down;
type = TopGhost;
},
{
place = (61, 646);
place = (61, 646);
type = Stem;
},
{
horizontal = 1;
place = (465, 52);
place = (465, 52);
type = Stem;
}
);
layerId = m01;
shapes = (
{
closed = 1;
nodes = (
(114,0,l),
(174,0,l),
(373,465,l),
(375,465,l),
(413,0,l),
(471,0,l),
(707,517,l),
(658,517,l),
(450,45,l),
(448,45,l),
(410,517,l),
(356,517,l),
(151,45,l),
(149,45,l),
(111,517,l),
(61,517,l)
);
}
);
width = 674;
}
);
note = w;
unicode = 119;
},
{
glyphname = x;
kernLeft = x;
kernRight = x;
lastChange = "2023-04-04 06:13:33 +0000";
layers = (
{
hints = (
{
horizontal = 1;
place = (0, 21);
target = up;
type = BottomGhost;
},
{
horizontal = 1;
place = (517, -20);
target = down;
type = TopGhost;
},
{
place = (-36, 483);
place = (-36, 483);
type = Stem;
}
);
layerId = m01;
shapes = (
{
closed = 1;
nodes = (
(191,279,l),
(-36,0,l),
(19,0,l),
(213,242,l),
(215,242,l),
(328,0,l),
(384,0,l),
(250,272,l),
(447,517,l),
(391,517,l),
(227,309,l),
(225,309,l),
(131,517,l),
(75,517,l)
);
}
);
width = 439;
}
);
note = x;
unicode = 120;
},
{
glyphname = y;
kernLeft = yacute;
kernRight = yacute;
lastChange = "2023-04-04 06:18:13 +0000";
layers = (
{
hints = (
{
horizontal = 1;
place = (-171, 45);
place = (-171, 45);
type = Stem;
},
{
horizontal = 1;
place = (517, -20);
target = down;
type = TopGhost;
},
{
place = (-4, 485);
place = (-4, 485);
type = Stem;
},
{
horizontal = 1;
place = (-165, 21);
target = up;
type = BottomGhost;
}
);
layerId = m01;
shapes = (
{
closed = 1;
nodes = (
(165,-7,l),
(157,-23,o),
(148,-39,o),
(140,-55,cs),
(116,-103,o),
(86,-126,o),
(46,-126,cs),
(22,-126,o),
(15,-123,o),
(5,-121,c),
(-4,-165,l),
(6,-168,o),
(19,-171,o),
(43,-171,cs),
(101,-171,o),
(143,-145,o),
(179,-75,cs),
(481,517,l),
(430,517,l),
(197,45,l),
(195,45,l),
(101,517,l),
(52,517,l)
);
}
);
width = 448;
}
);
note = y;
unicode = 121;
},
